<svg version="1.1" id="Layer_1" xmlns="http://www.w3.org/2000/svg" xmlns:xlink="http://www.w3.org/1999/xlink" x="0" y="0" width="1169.7" height="1112.1" viewBox="0 0 1169.7 1112.1" xml:space="preserve"><style>.st0{opacity:.75}.st1{fill:#d90368}.st3{opacity:.25}.st5{opacity:.5}.st7{opacity:.9}.st31{opacity:.8}.st51{fill:#fdcb06}</style><g class="st0"><path transform="rotate(-45 639.33 106.07)" class="st1" d="M564.3 31.1H714.3V181.1H564.3z"/><path transform="rotate(-45 745.4 212.14)" class="st1" d="M670.4 137.1H820.4V287.1H670.4z"/><g class="st0"><defs><path id="SVGID_1_" d="M745.4 212.1H957.5V424.2H745.4z"/></defs><clipPath id="SVGID_2_"><use xlink:href="#SVGID_1_" overflow="visible"/></clipPath><path transform="rotate(-45 851.46 318.21)" clip-path="url(#SVGID_2_)" fill="#d90368" d="M776.5 243.2H926.5V393.2H776.5z"/></g><g class="st3"><defs><path id="SVGID_3_" d="M851.5 318.2H1063.6V530.3H851.5z"/></defs><clipPath id="SVGID_4_"><use xlink:href="#SVGID_3_" overflow="visible"/></clipPath><path transform="rotate(-45 957.52 424.28)" clip-path="url(#SVGID_4_)" fill="#d90368" d="M882.5 349.3H1032.5V499.3H882.5z"/></g><g class="st5"><defs><path id="SVGID_5_" d="M321.1 0H533.2V212.1H321.1z"/></defs><clipPath id="SVGID_6_"><use xlink:href="#SVGID_5_" overflow="visible"/></clipPath><path transform="rotate(-45 427.2 106.07)" clip-path="url(#SVGID_6_)" fill="#d90368" d="M352.2 31.1H502.2V181.1H352.2z"/></g><g class="st7"><defs><path id="SVGID_7_" d="M427.2 106.1H639.3V318.2H427.2z"/></defs><clipPath id="SVGID_8_"><use xlink:href="#SVGID_7_" overflow="visible"/></clipPath><path transform="rotate(-45 533.26 212.14)" clip-path="url(#SVGID_8_)" fill="#d90368" d="M458.3 137.1H608.3V287.1H458.3z"/></g><path transform="rotate(-45 639.33 318.2)" class="st1" d="M564.3 243.2H714.3V393.2H564.3z"/><g class="st7"><defs><path id="SVGID_9_" d="M639.3 318.2H851.4V530.3H639.3z"/></defs><clipPath id="SVGID_10_"><use xlink:href="#SVGID_9_" overflow="visible"/></clipPath><path transform="rotate(-45 745.4 424.27)" clip-path="url(#SVGID_10_)" fill="#d90368" d="M670.4 349.3H820.4V499.3H670.4z"/></g><g class="st5"><defs><path id="SVGID_11_" d="M745.4 424.3H957.5V636.4H745.4z"/></defs><clipPath id="SVGID_12_"><use xlink:href="#SVGID_11_" overflow="visible"/></clipPath><path transform="rotate(-45 851.46 530.34)" clip-path="url(#SVGID_12_)" fill="#d90368" d="M776.5 455.3H926.5V605.3H776.5z"/></g><path transform="rotate(-45 215.07 106.07)" class="st1" d="M140.1 31.1H290.1V181.1H140.1z"/><g class="st0"><defs><path id="SVGID_13_" d="M215.1 106.1H427.2V318.2H215.1z"/></defs><clipPath id="SVGID_14_"><use xlink:href="#SVGID_13_" overflow="visible"/></clipPath><path transform="rotate(-45 321.13 212.14)" clip-path="url(#SVGID_14_)" fill="#d90368" d="M246.1 137.1H396.1V287.1H246.1z"/></g><path transform="rotate(-45 427.2 318.2)" class="st1" d="M352.2 243.2H502.2V393.2H352.2z"/><path transform="rotate(-45 533.26 424.27)" class="st1" d="M458.3 349.3H608.3V499.3H458.3z"/><path transform="rotate(-45 639.33 530.34)" class="st1" d="M564.3 455.3H714.3V605.3H564.3z"/><g class="st0"><defs><path id="SVGID_15_" d="M639.3 530.3H851.4V742.4H639.3z"/></defs><clipPath id="SVGID_16_"><use xlink:href="#SVGID_15_" overflow="visible"/></clipPath><path transform="rotate(-45 745.4 636.4)" clip-path="url(#SVGID_16_)" fill="#d90368" d="M670.4 561.4H820.4V711.4H670.4z"/></g><path transform="rotate(-45 109 212.13)" class="st1" d="M34 137.1H184V287.1H34z"/><g class="st5"><defs><path id="SVGID_17_" d="M745.4 848.5H957.5V1060.6H745.4z"/></defs><clipPath id="SVGID_18_"><use xlink:href="#SVGID_17_" overflow="visible"/></clipPath></g><g class="st7"><defs><path id="SVGID_19_" d="M109 212.1H321.1V424.2H109z"/></defs><clipPath id="SVGID_20_"><use xlink:href="#SVGID_19_" overflow="visible"/></clipPath><path transform="rotate(-45 215.06 318.2)" clip-path="url(#SVGID_20_)" fill="#d90368" d="M140.1 243.2H290.1V393.2H140.1z"/></g><path transform="rotate(-45 321.13 424.27)" class="st1" d="M246.1 349.3H396.1V499.3H246.1z"/><path transform="rotate(-45 427.2 530.34)" class="st1" d="M352.2 455.3H502.2V605.3H352.2z"/><path transform="rotate(-45 533.26 636.4)" class="st1" d="M458.3 561.4H608.3V711.4H458.3z"/><g class="st7"><defs><path id="SVGID_21_" d="M533.3 636.4H745.4V848.5H533.3z"/></defs><clipPath id="SVGID_22_"><use xlink:href="#SVGID_21_" overflow="visible"/></clipPath><path transform="rotate(-45 639.32 742.47)" clip-path="url(#SVGID_22_)" fill="#d90368" d="M564.3 667.5H714.3V817.5H564.3z"/></g><g class="st5"><defs><path id="SVGID_23_" d="M639.3 742.5H851.4V954.6H639.3z"/></defs><clipPath id="SVGID_24_"><use xlink:href="#SVGID_23_" overflow="visible"/></clipPath><path transform="rotate(-45 745.39 848.54)" clip-path="url(#SVGID_24_)" fill="#d90368" d="M670.4 773.5H820.4V923.5H670.4z"/></g><g class="st7"><defs><path id="SVGID_25_" d="M745.4 0H957.5V212.1H745.4z"/></defs><clipPath id="SVGID_26_"><use xlink:href="#SVGID_25_" overflow="visible"/></clipPath><path transform="rotate(-45 851.47 106.08)" clip-path="url(#SVGID_26_)" fill="#d90368" d="M776.5 31.1H926.5V181.1H776.5z"/></g><g class="st5"><defs><path id="SVGID_27_" d="M851.5 106.1H1063.6V318.2H851.5z"/></defs><clipPath id="SVGID_28_"><use xlink:href="#SVGID_27_" overflow="visible"/></clipPath><path transform="rotate(-45 957.52 212.15)" clip-path="url(#SVGID_28_)" fill="#d90368" d="M882.5 137.1H1032.5V287.1H882.5z"/></g><g class="st3"><defs><path id="SVGID_29_" d="M957.5 0H1169.6V212.1H957.5z"/></defs><clipPath id="SVGID_30_"><use xlink:href="#SVGID_29_" overflow="visible"/></clipPath><path transform="rotate(-45 1063.6 106.08)" clip-path="url(#SVGID_30_)" fill="#d90368" d="M988.6 31.1H1138.6V181.1H988.6z"/></g><path transform="rotate(-45 109 424.27)" class="st1" d="M34 349.3H184V499.3H34z"/><path transform="rotate(-45 215.06 530.34)" class="st1" d="M140.1 455.3H290.1V605.3H140.1z"/><path transform="rotate(-45 321.13 636.4)" class="st1" d="M246.1 561.4H396.1V711.4H246.1z"/><path transform="rotate(-45 427.2 742.47)" class="st1" d="M352.2 667.5H502.2V817.5H352.2z"/><path transform="rotate(-45 533.26 848.54)" class="st1" d="M458.3 773.5H608.3V923.5H458.3z"/><g class="st0"><defs><path id="SVGID_31_" d="M533.3 848.5H745.4V1060.6H533.3z"/></defs><clipPath id="SVGID_32_"><use xlink:href="#SVGID_31_" overflow="visible"/></clipPath><path transform="rotate(-45 639.32 954.6)" clip-path="url(#SVGID_32_)" fill="#d90368" d="M564.3 879.6H714.3V1029.6H564.3z"/></g><path transform="rotate(-45 109 636.4)" class="st1" d="M34 561.4H184V711.4H34z"/><path transform="rotate(-45 215.06 742.47)" class="st1" d="M140.1 667.5H290.1V817.5H140.1z"/><path transform="rotate(-45 321.12 848.54)" class="st1" d="M246.1 773.5H396.1V923.5H246.1z"/><path transform="rotate(-45 427.19 954.6)" class="st1" d="M352.2 879.6H502.2V1029.6H352.2z"/></g><g class="st5"><defs><path id="SVGID_33_" d="M424.3 0H636.4V212.1H424.3z"/></defs><clipPath id="SVGID_34_"><use xlink:href="#SVGID_33_" overflow="visible"/></clipPath><path transform="rotate(-45 530.33 106.07)" clip-path="url(#SVGID_34_)" fill="#00adff" d="M455.3 31.1H605.3V181.1H455.3z"/></g><g class="st0"><defs><path id="SVGID_35_" d="M530.3 106.1H742.4V318.2H530.3z"/></defs><clipPath id="SVGID_36_"><use xlink:href="#SVGID_35_" overflow="visible"/></clipPath><path transform="rotate(-45 636.4 212.14)" clip-path="url(#SVGID_36_)" fill="#d90368" d="M561.4 137.1H711.4V287.1H561.4z"/></g><g class="st5"><defs><path id="SVGID_37_" d="M636.4 212.1H848.5V424.2H636.4z"/></defs><clipPath id="SVGID_38_"><use xlink:href="#SVGID_37_" overflow="visible"/></clipPath><path transform="rotate(-45 742.46 318.2)" clip-path="url(#SVGID_38_)" fill="#d90368" d="M667.5 243.2H817.5V393.2H667.5z"/></g><g class="st3"><defs><path id="SVGID_39_" d="M742.5 318.2H954.6V530.3H742.5z"/></defs><clipPath id="SVGID_40_"><use xlink:href="#SVGID_39_" overflow="visible"/></clipPath><path transform="rotate(-45 848.53 424.28)" clip-path="url(#SVGID_40_)" fill="#fdcb06" d="M773.5 349.3H923.5V499.3H773.5z"/></g><g class="st7"><defs><path id="SVGID_41_" d="M212.1 0H424.2V212.1H212.1z"/></defs><clipPath id="SVGID_42_"><use xlink:href="#SVGID_41_" overflow="visible"/></clipPath><path transform="rotate(-45 318.2 106.07)" clip-path="url(#SVGID_42_)" fill="#00adff" d="M243.2 31.1H393.2V181.1H243.2z"/></g><g class="st0"><defs><path id="SVGID_43_" d="M318.2 106.1H530.3V318.2H318.2z"/></defs><clipPath id="SVGID_44_"><use xlink:href="#SVGID_43_" overflow="visible"/></clipPath><path transform="rotate(-45 424.26 212.14)" clip-path="url(#SVGID_44_)" fill="#00adff" d="M349.3 137.1H499.3V287.1H349.3z"/></g><g class="st7"><defs><path id="SVGID_45_" d="M424.3 212.1H636.4V424.2H424.3z"/></defs><clipPath id="SVGID_46_"><use xlink:href="#SVGID_45_" overflow="visible"/></clipPath><path transform="rotate(-45 530.33 318.2)" clip-path="url(#SVGID_46_)" fill="#d90368" d="M455.3 243.2H605.3V393.2H455.3z"/></g><g opacity=".65"><defs><path id="SVGID_47_" d="M530.3 318.2H742.4V530.3H530.3z"/></defs><clipPath id="SVGID_48_"><use xlink:href="#SVGID_47_" overflow="visible"/></clipPath><path transform="rotate(-45 636.4 424.27)" clip-path="url(#SVGID_48_)" fill="#d90368" d="M561.4 349.3H711.4V499.3H561.4z"/></g><g class="st5"><defs><path id="SVGID_49_" d="M636.4 424.3H848.5V636.4H636.4z"/></defs><clipPath id="SVGID_50_"><use xlink:href="#SVGID_49_" overflow="visible"/></clipPath><path transform="rotate(-45 742.46 530.34)" clip-path="url(#SVGID_50_)" fill="#fdcb06" d="M667.5 455.3H817.5V605.3H667.5z"/></g><g class="st7"><defs><path id="SVGID_51_" d="M0 0H212.1V212.1H0z"/></defs><clipPath id="SVGID_52_"><use xlink:href="#SVGID_51_" overflow="visible"/></clipPath><path transform="rotate(-45 106.07 106.07)" clip-path="url(#SVGID_52_)" fill="#00adff" d="M31.1 31.1H181.1V181.1H31.1z"/></g><g class="st31"><defs><path id="SVGID_53_" d="M106.1 106.1H318.2V318.2H106.1z"/></defs><clipPath id="SVGID_54_"><use xlink:href="#SVGID_53_" overflow="visible"/></clipPath><path transform="rotate(-45 212.13 212.14)" clip-path="url(#SVGID_54_)" fill="#00adff" d="M137.1 137.1H287.1V287.1H137.1z"/></g><g opacity=".85"><defs><path id="SVGID_55_" d="M212.1 212.1H424.2V424.2H212.1z"/></defs><clipPath id="SVGID_56_"><use xlink:href="#SVGID_55_" overflow="visible"/></clipPath><path transform="rotate(-45 318.2 318.2)" clip-path="url(#SVGID_56_)" fill="#00adff" d="M243.2 243.2H393.2V393.2H243.2z"/></g><g class="st7"><defs><path id="SVGID_57_" d="M318.2 318.2H530.3V530.3H318.2z"/></defs><clipPath id="SVGID_58_"><use xlink:href="#SVGID_57_" overflow="visible"/></clipPath><path transform="rotate(-45 424.26 424.27)" clip-path="url(#SVGID_58_)" fill="#d90368" d="M349.3 349.3H499.3V499.3H349.3z"/></g><g class="st7"><defs><path id="SVGID_59_" d="M424.3 424.3H636.4V636.4H424.3z"/></defs><clipPath id="SVGID_60_"><use xlink:href="#SVGID_59_" overflow="visible"/></clipPath><path transform="rotate(-45 530.33 530.34)" clip-path="url(#SVGID_60_)" fill="#d90368" d="M455.3 455.3H605.3V605.3H455.3z"/></g><g class="st0"><defs><path id="SVGID_61_" d="M530.3 530.3H742.4V742.4H530.3z"/></defs><clipPath id="SVGID_62_"><use xlink:href="#SVGID_61_" overflow="visible"/></clipPath><path transform="rotate(-45 636.4 636.4)" clip-path="url(#SVGID_62_)" fill="#fdcb06" d="M561.4 561.4H711.4V711.4H561.4z"/></g><g class="st3"><defs><path id="SVGID_63_" d="M636.4 636.4H848.5V848.5H636.4z"/></defs><clipPath id="SVGID_64_"><use xlink:href="#SVGID_63_" overflow="visible"/></clipPath><path transform="rotate(-45 742.46 742.47)" clip-path="url(#SVGID_64_)" fill="#fdcb06" d="M667.5 667.5H817.5V817.5H667.5z"/></g><g class="st5"><defs><path id="SVGID_65_" d="M636.4 848.5H848.5V1060.6H636.4z"/></defs><clipPath id="SVGID_66_"><use xlink:href="#SVGID_65_" overflow="visible"/></clipPath></g><g class="st7"><defs><path id="SVGID_67_" d="M0 212.1H212.1V424.2H0z"/></defs><clipPath id="SVGID_68_"><use xlink:href="#SVGID_67_" overflow="visible"/></clipPath><path transform="rotate(-45 106.06 318.2)" clip-path="url(#SVGID_68_)" fill="#00adff" d="M31.1 243.2H181.1V393.2H31.1z"/></g><g class="st7"><defs><path id="SVGID_69_" d="M106.1 318.2H318.2V530.3H106.1z"/></defs><clipPath id="SVGID_70_"><use xlink:href="#SVGID_69_" overflow="visible"/></clipPath><path transform="rotate(-45 212.13 424.27)" clip-path="url(#SVGID_70_)" fill="#00adff" d="M137.1 349.3H287.1V499.3H137.1z"/></g><g class="st7"><defs><path id="SVGID_71_" d="M212.1 424.3H424.2V636.4H212.1z"/></defs><clipPath id="SVGID_72_"><use xlink:href="#SVGID_71_" overflow="visible"/></clipPath><path transform="rotate(-45 318.2 530.34)" clip-path="url(#SVGID_72_)" fill="#d90368" d="M243.2 455.3H393.2V605.3H243.2z"/></g><g class="st7"><defs><path id="SVGID_73_" d="M318.2 530.3H530.3V742.4H318.2z"/></defs><clipPath id="SVGID_74_"><use xlink:href="#SVGID_73_" overflow="visible"/></clipPath><path transform="rotate(-45 424.26 636.4)" clip-path="url(#SVGID_74_)" fill="#d90368" d="M349.3 561.4H499.3V711.4H349.3z"/></g><g class="st31"><defs><path id="SVGID_75_" d="M424.3 636.4H636.4V848.5H424.3z"/></defs><clipPath id="SVGID_76_"><use xlink:href="#SVGID_75_" overflow="visible"/></clipPath><path transform="rotate(-45 530.32 742.47)" clip-path="url(#SVGID_76_)" fill="#fdcb06" d="M455.3 667.5H605.3V817.5H455.3z"/></g><g class="st5"><defs><path id="SVGID_77_" d="M530.3 742.5H742.4V954.6H530.3z"/></defs><clipPath id="SVGID_78_"><use xlink:href="#SVGID_77_" overflow="visible"/></clipPath><path transform="rotate(-45 636.39 848.54)" clip-path="url(#SVGID_78_)" fill="#fdcb06" d="M561.4 773.5H711.4V923.5H561.4z"/></g><g class="st5"><defs><path id="SVGID_79_" d="M636.4 0H848.5V212.1H636.4z"/></defs><clipPath id="SVGID_80_"><use xlink:href="#SVGID_79_" overflow="visible"/></clipPath><path transform="rotate(-45 742.46 106.08)" clip-path="url(#SVGID_80_)" fill="#d90368" d="M667.5 31.1H817.5V181.1H667.5z"/></g><g class="st5"><defs><path id="SVGID_81_" d="M742.5 106.1H954.6V318.2H742.5z"/></defs><clipPath id="SVGID_82_"><use xlink:href="#SVGID_81_" overflow="visible"/></clipPath><path transform="rotate(-45 848.53 212.14)" clip-path="url(#SVGID_82_)" fill="#d90368" d="M773.5 137.1H923.5V287.1H773.5z"/></g><g class="st3"><defs><path id="SVGID_83_" d="M848.5 0H1060.6V212.1H848.5z"/></defs><clipPath id="SVGID_84_"><use xlink:href="#SVGID_83_" overflow="visible"/></clipPath><path transform="rotate(-45 954.6 106.08)" clip-path="url(#SVGID_84_)" fill="#d90368" d="M879.6 31.1H1029.6V181.1H879.6z"/></g><g class="st7"><defs><path id="SVGID_85_" d="M0 424.3H212.1V636.4H0z"/></defs><clipPath id="SVGID_86_"><use xlink:href="#SVGID_85_" overflow="visible"/></clipPath><path transform="rotate(-45 106.06 530.33)" clip-path="url(#SVGID_86_)" fill="#00adff" d="M31.1 455.3H181.1V605.3H31.1z"/></g><g class="st7"><defs><path id="SVGID_87_" d="M106.1 530.3H318.2V742.4H106.1z"/></defs><clipPath id="SVGID_88_"><use xlink:href="#SVGID_87_" overflow="visible"/></clipPath><path transform="rotate(-45 212.13 636.4)" clip-path="url(#SVGID_88_)" fill="#d90368" d="M137.1 561.4H287.1V711.4H137.1z"/></g><g class="st7"><defs><path id="SVGID_89_" d="M212.1 636.4H424.2V848.5H212.1z"/></defs><clipPath id="SVGID_90_"><use xlink:href="#SVGID_89_" overflow="visible"/></clipPath><path transform="rotate(-45 318.2 742.47)" clip-path="url(#SVGID_90_)" fill="#d90368" d="M243.2 667.5H393.2V817.5H243.2z"/></g><path class="st51" d="M266.3 900.3L372.3 1006.3 530.3 848.5 424.3 742.5z"/><g class="st0"><path transform="rotate(-45 504.58 980.35)" class="st51" d="M393.2 905.3H616V1055.3H393.2z"/><path fill="none" d="M424.3 848.5H636.4V1060.6H424.3z"/></g><g class="st7"><defs><path id="SVGID_91_" d="M0 636.4H212.1V848.5H0z"/></defs><clipPath id="SVGID_92_"><use xlink:href="#SVGID_91_" overflow="visible"/></clipPath><path transform="rotate(-45 106.06 742.47)" clip-path="url(#SVGID_92_)" fill="#d90368" d="M31.1 667.5H181.1V817.5H31.1z"/></g><g class="st7"><defs><path id="SVGID_93_" d="M106.1 742.5H318.2V954.6H106.1z"/></defs><clipPath id="SVGID_94_"><use xlink:href="#SVGID_93_" overflow="visible"/></clipPath><path transform="rotate(-45 212.12 848.53)" clip-path="url(#SVGID_94_)" fill="#d90368" d="M137.1 773.5H287.1V923.5H137.1z"/></g></svg>